# xmcd CD database file
#
# Track frame offsets:
#	150
#	12930
#	30529
#	47927
#	67013
#	85117
#	102087
#	123676
#	141323
#	164181
#	187698
#	207978
#	231336
#	251738
#	274090
#
# Disc length: 3933 seconds
#
# Revision: 0
# Processed by: cddbd v1.4PL0 Copyright (c) Steve Scherf et al.
# Submitted via: CDex 1.50
#
DISCID=dc0f5b0f
DTITLE=張學友 - 沒有童話時
DYEAR=2001
DGENRE=國語流行
TTITLE0=沒有童話時
TTITLE1=2
TTITLE2=3
TTITLE3=4
TTITLE4=5
TTITLE5=6
TTITLE6=7
TTITLE7=8
TTITLE8=9
TTITLE9=10
TTITLE10=11
TTITLE11=12
TTITLE12=13
TTITLE13=14
TTITLE14=15
EXTD=YEAR: 2001
EXTT0=
EXTT1=
EXTT2=
EXTT3=
EXTT4=
EXTT5=
EXTT6=
EXTT7=
EXTT8=
EXTT9=
EXTT10=
EXTT11=
EXTT12=
EXTT13=
EXTT14=
PLAYORDER=
